<svg width="34" height="20" xmlns="http://www.w3.org/2000/svg" viewBox="0 0 34 20">
    <g fill="none" fill-rule="evenodd">
        <path d="M0 9.224c1.24 3.754 2.937 5.47 7.049 8.08-.448-.933.8-2.003.532-3.025C4.717 14 1.538 11.402 0 9.224M31.939 2.65c-.65-.997-1.697-1.8-2.92-1.704-1.357.108-2.574 1.372-3.4 2.379-.488.594-2.29 3.02-2.743 3.581a19.433 19.433 0 0010.67 3.23c.411-2.293-.277-5.442-1.607-7.486m-17.464-.74c-1.06-.482-2.146-.928-3.27-1.228-.894-.24-1.87-.435-2.794-.27-.8.143-1.465.614-1.766 1.402-.612 1.605-.04 3.421.488 4.946.929 2.68 1.839 5.36.448 7.519 6.158 0 11.66-2.871 15.295-7.373-.71-.468-6.355-4.064-8.401-4.996" fill="#00E2FF"/>
        <path d="M22.876 6.906C19.24 11.408 13.739 14.28 7.58 14.28h-.006c-.442.656-1.437 1.68-1.89 2.176.458.312.829.549 1.364.85l.007.004c.169.094.337.187.508.277.015.006.029.015.044.022.173.09.348.179.523.264l.004.003c.365.177.738.343 1.115.499l.022.008c.171.069.344.137.517.202l.088.034a20.59 20.59 0 001.713.546l.059.014c.166.044.332.086.5.126l.149.034c.142.033.284.062.427.092l.164.033c.152.03.304.058.457.083.041.008.081.016.122.022.194.032.39.06.586.086l.089.012c.162.021.326.04.49.056a20.509 20.509 0 00.591.05c.073.007.144.011.215.016.134.008.267.014.4.02a18.81 18.81 0 00.763.017h.03c7.158 0 13.43-3.878 16.915-9.689a19.422 19.422 0 01-10.671-3.23" fill="#00BADA"/>
    </g>
</svg>