<svg width="135" height="20" xmlns="http://www.w3.org/2000/svg" viewBox="0 0 135 20">
    <g fill="none" fill-rule="evenodd">
        <path d="M0 9.224c1.24 3.754 2.937 5.47 7.049 8.08-.448-.933.8-2.003.532-3.025C4.717 14 1.538 11.402 0 9.224M31.939 2.65c-.65-.997-1.697-1.8-2.92-1.704-1.357.108-2.574 1.372-3.4 2.379-.488.594-2.29 3.02-2.743 3.581a19.433 19.433 0 0010.67 3.23c.411-2.293-.277-5.442-1.607-7.486m-17.464-.74c-1.06-.482-2.146-.928-3.27-1.228-.894-.24-1.87-.435-2.794-.27-.8.143-1.465.614-1.766 1.402-.612 1.605-.04 3.421.488 4.946.929 2.68 1.839 5.36.448 7.519 6.158 0 11.66-2.871 15.295-7.373-.71-.468-6.355-4.064-8.401-4.996" fill="#00E2FF"/>
        <path d="M22.876 6.906C19.24 11.408 13.739 14.28 7.58 14.28h-.006c-.442.656-1.437 1.68-1.89 2.176.458.312.829.549 1.364.85l.007.004c.169.094.337.187.508.277.015.006.029.015.044.022.173.09.348.179.523.264l.004.003c.365.177.738.343 1.115.499l.022.008c.171.069.344.137.517.202l.088.034a20.59 20.59 0 001.713.546l.059.014c.166.044.332.086.5.126l.149.034c.142.033.284.062.427.092l.164.033c.152.03.304.058.457.083.041.008.081.016.122.022.194.032.39.06.586.086l.089.012c.162.021.326.04.49.056a20.509 20.509 0 00.591.05c.073.007.144.011.215.016.134.008.267.014.4.02a18.81 18.81 0 00.763.017h.03c7.158 0 13.43-3.878 16.915-9.689a19.422 19.422 0 01-10.671-3.23" fill="#00BADA"/>
        <path d="M44.082 5.542h9.521c2.696 0 4.18 1.324 4.18 3.372 0 1.583-.887 2.582-2.373 2.97 1.438.42 2.099 1.372 2.099 2.582v2.115h-1.84v-2.146c0-.889-.565-1.744-2.129-1.744h-7.683v3.89h-1.775V5.541zm9.65 5.567c1.678 0 2.228-1.097 2.228-2 0-.905-.532-1.985-2.227-1.985h-7.876v3.985h7.876zM74.63 16.58h-1.905l-1.5-3H62.59l-1.5 3h-1.905l4.437-8.876c.711-1.436 1.566-2.308 3.277-2.308 1.727 0 2.567.872 3.292 2.308l4.439 8.877zm-6.181-8.505c-.34-.677-.76-1.097-1.55-1.097-.775 0-1.193.42-1.533 1.097l-1.969 3.922h7.004L68.45 8.075zm7.017-2.533l3.664 4.164c.403.468.92 1 1.242 1.646.307-.646.824-1.178 1.243-1.646l3.664-4.164h2.582l-5.245 5.6c-.436.468-1.356 1.388-1.356 2.163v3.276h-1.775v-3.276c0-.759-.92-1.711-1.356-2.163l-5.245-5.6h2.582zM91.247 16.58h-1.791V5.543h1.355c2.809 0 3.583.952 6.553 4.987 2.808 3.825 3.13 4.26 4.582 4.26h.081V5.543h1.792V16.58h-1.356c-2.63 0-3.421-.888-6.52-4.971-2.985-3.906-3.212-4.26-4.616-4.26h-.08v9.23zm20.266-9.344c-2.453 0-3.323 1.033-3.453 3.034h11.926v1.598H108.06c.13 1.985 1 3.002 3.453 3.002h8.7v1.711h-8.7c-3.84 0-5.26-1.856-5.26-5.52 0-3.664 1.42-5.519 5.26-5.519h8.7v1.694h-8.7zm15.733 9.344V7.157h-5.697V5.542h13.17v1.614h-5.698v9.425z" fill="#FFF"/>
    </g>
</svg>